/* XPM */
static char *bitcoin32[] = {
/* columns rows colors chars-per-pixel */
"32 32 69 1 ",
"  c black",
". c #010000",
"X c #000100",
"o c #020000",
"O c #000200",
"+ c #494949",
"@ c gray30",
"# c #4E4E4E",
"$ c gray31",
"% c #505050",
"& c #5D5D5D",
"* c #5D5F5F",
"= c gray37",
"- c #5F5E5E",
"; c #5E5F5F",
": c #605B5B",
"> c #605C5C",
", c #605D5D",
"< c #615D5D",
"1 c #605E5D",
"2 c #605E5E",
"3 c #4E6869",
"4 c #506767",
"5 c #516767",
"6 c #526666",
"7 c #556465",
"8 c #5B6161",
"9 c #586262",
"0 c #5C6060",
"q c #E60D05",
"w c #E40E05",
"e c #EF0803",
"r c #EA0A05",
"t c #EB0A05",
"y c #EB0B05",
"u c #E90B06",
"i c #E90B07",
"p c #EB0A06",
"a c #EA0B06",
"s c #EB0B06",
"d c #EA0B07",
"f c #ED0905",
"g c #EC0A05",
"h c #EC0B05",
"j c #EC0B06",
"k c #E90C05",
"l c #E80D05",
"z c #E80C07",
"x c #E90C07",
"c c #EA0C06",
"v c #EA0C07",
"b c #F70300",
"n c #F70301",
"m c #F30601",
"M c #F50401",
"N c #F40501",
"B c #F30406",
"V c #F90200",
"C c #F80300",
"Z c #F80206",
"A c #FE0006",
"S c #F00803",
"D c #16B500",
"F c #17B500",
"G c #15B600",
"H c #16B600",
"J c #07C100",
"K c #05C800",
"L c None",
/* pixels */
"LLLLLLLLLLLL        LLLLLLLLLLLL",
"LLLLLLLLL  LLLLLLLLLL  LLLLLLLLL",
"LLLLLLL  LLLLLLLLLLLLLL  LLLLLLL",
"LLLLLL LLLLLLhvLL>--LLLLL LLLLLL",
"LLLLL LLLL>LbvvLL>27LjLLLL LLLLL",
"LLLL LLL>0;6LvvLL><LLvadLLL LLLL",
"LLL LLLLL>--LSvLL20LhhdLLLLL LLL",
"LL LLLhaLL--LLLLLLLLjdLL;>LLL LL",
"LL LLvjjvLLLLLLLLLLLLmL;>0>LL LL",
"L LLLLhjhvLLLLLLLLLLLL>->0LLLL L",
"L LL;LLLaLLLLLLLLLLLLLL-LLLhLL L",
"LLLL;>0LLLL%%LLLLLL%%LLLLhjhLLLL",
" LL>>>>>LLL%%LLLLLL$%LLLvvqvzLL ",
" LLLL39LLLLLL+LLLL+LLLLLLZLLLLL ",
" LLMLLLLLLLLLL+##+LLLLLLLLLLJLL ",
" LLavvvLLLLLLL##$$LLLLLLLHHHGLLO",
" LLjvjjLLLLLLL#%$#LLLLLLLHHHHLL ",
" LLCLLLLLLLLLL+L#+LLLLLLLLLLKLL ",
" LLLL37LLLLL#+LLLL+#LLLLLBALLLL ",
" LL>>>>>LLL%#LLLLLL#%LLLvvvvwLL ",
"LLLL;>0LLLL$%LLLLLL%#LLLLSvjLLLL",
"L LL-LLMaLLLLLLLLLLLLLL;4LLjLL L",
"L LLLLhdhvLLLLLLLLLLLL>0>;LLLL L",
"LL LLdahaLLLLLLLLLLLLLL>;2>LL LL",
"LL LLLhjLL22LLLLLLLLaaLL>2LLL LL",
"LLL LLLLL22;LSvLL>9LhvvLLLLL LLL",
"LLLL LLL20>5LvvLL>>LCajvLLL LLLL",
"LLLLL LLLL>LCvvLL<>6LaLLLL LLLLL",
"LLLLLL LLLLLLjvLL>;LLLLLL LLLLLL",
"LLLLLLLL LLLLLLLLLLLLLL LLLLLLLL",
"LLLLLLLLL   LLLLLLLL   LLLLLLLLL",
"LLLLLLLLLLLL  o     LLLLLLLLLLLL"
};
