/* XPM */
static char *bitcoin96[] = {
/* columns rows colors chars-per-pixel */
"96 96 25 1 ",
"  c black",
". c #494949",
"X c gray29",
"o c #4B4B4B",
"O c #4C4C4C",
"+ c gray30",
"@ c #4E4E4E",
"# c gray31",
"$ c #505050",
"% c gray37",
"& c #5F5E5E",
"* c #5F5F5F",
"= c #EB0A05",
"- c #EB0B05",
"; c #EB0A06",
": c #EB0B06",
"> c #EC0A05",
", c #EC0B05",
"< c #EC0A06",
"1 c #EC0B06",
"2 c #13B700",
"3 c #14B700",
"4 c #13B800",
"5 c #14B800",
"6 c None",
/* pixels */
"66666666666666666666666666666666666666666              66666666666666666666666666666666666666666",
"666666666666666666666666666666666666                        666666666666666666666666666666666666",
"666666666666666666666666666666666         666666666666         666666666666666666666666666666666",
"666666666666666666666666666666       6666666666666666666666       666666666666666666666666666666",
"6666666666666666666666666666     666666666666666666666666666666     6666666666666666666666666666",
"66666666666666666666666666     6666666666666666666666666666666666     66666666666666666666666666",
"666666666666666666666666    6666666666666666666666666666666666666666    666666666666666666666666",
"6666666666666666666666    66666666666666666666666666666666666666666666    6666666666666666666666",
"666666666666666666666    6666666666666666666666666666666666666666666666    666666666666666666666",
"6666666666666666666    666666666666666666=====6666%%%%%%66666666666666666    6666666666666666666",
"666666666666666666   6666666666666666====1111=6666%******%%6666666666666666   666666666666666666",
"66666666666666666   6666666666666666==1111==,:6666%**%%%***%6666666666666666   66666666666666666",
"6666666666666666   666666666666%%6666=1=11111=6666%*****%**6666=6666666666666   6666666666666666",
"666666666666666   66666666666%%%*%666=1=11111=6666%*****%*%666====666666666666   666666666666666",
"66666666666666   6666666666%%**%*%666==111111=6666%******%6666=111==66666666666   66666666666666",
"6666666666666   6666666666%**%***%%666=,=1111=6666%****%*%6666=1==1,==6666666666   6666666666666",
"666666666666   6666666666%**%*****%666=,11111=6666%******%666=,1111,1;=6666666666   666666666666",
"66666666666   6666666666%%*%****%*%6666=11111=6666%***%*%6666=1;1111=11=6666666666   66666666666",
"6666666666   666666666666%**%******%666=1=1=1=6666%*%*%*%6666=111111=1=666666666666   6666666666",
"666666666   666666666=6666%%*****%**666==1111;6666%****%%666=1=1111=1=6666*666666666   666666666",
"666666666  666666666===6666%*******%6666=1====6666%%%%*%6666=1=111=1=6666%%%666666666  666666666",
"66666666  666666666=,,1=6666%*%***%*%666==666666666666%%6666=1111=1==666%***%666666666  66666666",
"6666666   66666666=:1=1==6666%*%*%***6666666666666666666666=1==1,1,=666%%*%**%66666666   6666666",
"6666666  66666666=:1:1=1=66666%***%%66666666666666666666666==11;,,=666%%*%****%66666666  6666666",
"666666   66666666=1=111=1=66666%%%666666666666666666666666666==1,=6666%*%******%6666666   666666",
"666666  66666666=1=11111=1=6666*%666666666666666666666666666666==6666**%*****%*%66666666  666666",
"66666  66666666=11=11111111=6666666666666666666666666666666666666666%*%******%***66666666  66666",
"66666  666666666==11=1111111=66666666666666666666666666666666666666%*%*****%**%%666666666  66666",
"6666  666666666666=,,=1111=1=66666666666666666666666666666666666666%*****%**%%666666666666  6666",
"6666  6666666666666==,1=1=1=6666666666666666666666666666666666666666%***%**%*6666666666666  6666",
"666   6666666%%666666==111=666666666666666666666666666666666666666666%***%%666666==6666666   666",
"666  66666666%%%6666666===66666666666666666666666666666666666666666666%%%666666==1,=6666666  666",
"666  6666666%***%%666666==666666666666666666666666666666666666666666666*666666=11=1=6666666  666",
"66  66666666%*%%**%%666666666666666###66666666666666666666###666666666666666==11;1,1=6666666  66",
"66  6666666%*****%**%%666666666666#$$$##6666666666666666##$$$#666666666666==11=111=1=6666666  66",
"66  6666666%*%****%%*%%6666666666#$$##$#6666666666666666#$###$#6666666666=,,;1111111==666666  66",
"6   6666666%********%*%6666666666#$#$##$6666666666666666$##$#$#6666666666=1=1111111=1=666666   6",
"6  6666666%%%*********%6666666666#$#$#$@6666666666666666@$$##$#6666666666=,1111111==1=6666666  6",
"6  6666666%*****%%*****66666666666#$#$@..66666666666666..o##$##66666666666=1===111111=6666666  6",
"6  6666666%%%%%%*****%666666666666##$@....666666666666.o..@$##666666666666=1111,=====66666666  6",
"6  666666666666*%%%%%%6666666666666666..o..6666666666..oo.6666666666666666======6666666666666  6",
"   66666666666666666%666666666666666666...o.66666666.o...666666666666666666666666666666666666   ",
"  66666666666666666666666666666666666666.....666666.....66666666666666666666666666666666666666  ",
"  6666666=====666666666666666666666666666..o..##$$..o..666666666666666666666666666222226666666  ",
"  6666666=11;;=====66666666666666666666666...@$##$@...6666666666666666666666222222255526666666  ",
"  6666666=1=111111===6666666666666666666666.@######@.66666666666666666666662555555542526666666  ",
"  6666666=11111==,,1=66666666666666666666666###$$$##$66666666666666666666662523555554526666666  ",
"  6666666=1,111111=,=6666666666666666666666####$$$$##66666666666666666666662555555554526666666  ",
"  6666666=1=11111111=6666666666666666666666$$#$$$$#$#66666666666666666666662535555555526666666  ",
"  6666666=1=111=;,11166666666666666666666666@$#$$#$##66666666666666666666662555222555526666666  ",
"  6666666=,=111111=,=6666666666666666666666..#$##$@..66666666666666666666662225555554526666666  ",
"  6666666=1;====;==66666666666666666666666.o..#$$#o...6666666666666666666666662422222526666666  ",
"  6666666====6666666666666666666666666666..oo666#6..o..666666666666666666666666666664226666666  ",
"  66666666666666666666666666666666666666....6666666..o..66666666666666666666666666666666666666  ",
"   666666666666666%%%%66666666666666666..o.666666666.....666666666666666666=66666666666666666   ",
"6  6666666666%%*%%%**%6666666666666666..o.66666666666..o..6666666666666666=========6666666666  6",
"6  6666666%%%%*******%666666666666##$#o..6666666666666...@#$##666666666666=11111,1,=,=6666666  6",
"6  6666666%****%%%**%*%6666666666$#$#$$o666666666666666.o#$#$##66666666666=1,;==,1111=6666666  6",
"6  6666666%*%*********%6666666666#$#$#$$6666666666666666###$#$#6666666666=,11111111=1=6666666  6",
"6   6666666%*%******%*%%666666666#$#$$##6666666666666666##$$#$#6666666666=1=11111111==666666   6",
"66  6666666%*%****%**%%6666666666#$$##$#6666666666666666#$###$#6666666666==11=111111=6666666  66",
"66  6666666%*%**%**%%6666666666666#$$$##66666666666666666#$$$#6666666666666=111=11=1=6666666  66",
"66   6666666%*%%**%6666666666666666###66666666666666666666###6666666666666666==11==1=666666   66",
"666  6666666%%**%%666666==66666666666666666666666666666666666666666666%*6666666==11=6666666  666",
"666  66666666%%%666666==11=666666666666666666666666666666666666666666%*%%%666666====6666666  666",
"666   6666666%6666666=,1=1==66666666666666666666666666666666666666666%****%%666666=6666666   666",
"6666  6666666666666==11=1=1==666666666666666666666666666666666666666%*%****%%%666666666666  6666",
"6666   6666666666==,1=1111=1=66666666666666666666666666666666666666**%****%***%%666666666   6666",
"66666  666666666=11=11111=,=666666666666666666666666666666666666666%**%*****%**%%66666666  66666",
"66666   6666666=;1=11111111=6666666666666666666666666666666666666666%%*%******%*66666666   66666",
"666666  66666666=1=111111,=6666*%666666666666666666666666666666==6666%*********%66666666  666666",
"666666   66666666=1=111=1=6666%%*%666666666666666666666666666==1==6666%*****%*%66666666   666666",
"6666666  666666666=1=1=1=66666%***%%66666666666666666666666==;1=1==6666****%*%666666666  6666666",
"66666666  666666666=1=11=6666%***%**%6666666666666666666666=1==1=1=66666%*%*%%66666666  66666666",
"66666666   666666666=1==6666%*%***%*%666==66666666666%%%666=,1111=1=66666%**%66666666   66666666",
"666666666  6666666666==6666**%*****%6666=1====666%%%%%*%6666=11111=1=66666%%666666666  666666666",
"6666666666  66666666666666%%*%***%*%666==,1111666******%%666=,;1111,1=66666666666666  6666666666",
"6666666666   666666666666%%*%*****%%666=1=1,;=666%%***%*%666=;1111111==666666666666   6666666666",
"66666666666   66666666666%*%*******6666=111111666%%***%*%6666=1:1111=1166666666666   66666666666",
"666666666666   6666666666%**%***%*%666=1;1111,666%%****%*%666=1=111=1;=6666666666   666666666666",
"6666666666666   6666666666%%**%**%%666=1=1111:666%*****%*%666==1:=11==6666666666   6666666666666",
"66666666666666   6666666666*%%***%6666=111111:6666%******%%666=111==66666666666   66666666666666",
"666666666666666   66666666666%%%*%666=,=11111:6666%*****%*%666=,==666666666666   666666666666666",
"6666666666666666   666666666666%%*666=1=1111116666%*****%**6666=6666666666666   6666666666666666",
"66666666666666666    666666666666666==1,11=1==6666%*%%****%%666666666666666    66666666666666666",
"666666666666666666    666666666666666==,==11116666****%%%%%666666666666666    666666666666666666",
"66666666666666666666    66666666666666666=====6666%%%%%66666666666666666    66666666666666666666",
"666666666666666666666    6666666666666666666666666666666666666666666666    666666666666666666666",
"66666666666666666666666    666666666666666666666666666666666666666666    66666666666666666666666",
"6666666666666666666666666    66666666666666666666666666666666666666    6666666666666666666666666",
"66666666666666666666666666      66666666666666666666666666666666      66666666666666666666666666",
"66666666666666666666666666666     6666666666666666666666666666     66666666666666666666666666666",
"6666666666666666666666666666666       66666666666666666666       6666666666666666666666666666666",
"6666666666666666666666666666666666            6666            6666666666666666666666666666666666",
"66666666666666666666666666666666666666                    66666666666666666666666666666666666666",
"66666666666666666666666666666666666666666666        66666666666666666666666666666666666666666666"
};
