/* XPM */
static char *bitcoin64[] = {
/* columns rows colors chars-per-pixel */
"64 64 48 1 ",
"  c black",
". c #494949",
"X c gray29",
"o c #4B4B4B",
"O c #4C4C4C",
"+ c gray30",
"@ c #4E4E4E",
"# c gray31",
"$ c #505050",
"% c gray37",
"& c #5F5E5E",
"* c #5F5F5E",
"= c #5E5E5F",
"- c #5E5F5F",
"; c #5F5F5F",
": c #615C5C",
"> c #605D5D",
", c #615D5D",
"< c #625C5C",
"1 c #625D5C",
"2 c #605E5D",
"3 c #605E5E",
"4 c #E70D05",
"5 c #EB0A05",
"6 c #EA0B05",
"7 c #EB0B05",
"8 c #EB0A06",
"9 c #EA0B06",
"0 c #EB0B06",
"q c #EC0A05",
"w c #EC0B05",
"e c #EC0A06",
"r c #EC0B06",
"t c #E90C05",
"y c #E80D05",
"u c #EA0C05",
"i c #E80C07",
"p c #E90C07",
"a c #E70D08",
"s c #13B700",
"d c #17B400",
"f c #17B500",
"g c #15B600",
"h c #14B700",
"j c #15B700",
"k c #13B800",
"l c #14B800",
"z c None",
/* pixels */
"zzzzzzzzzzzzzzzzzzzzzzzzzz            zzzzzzzzzzzzzzzzzzzzzzzzzz",
"zzzzzzzzzzzzzzzzzzzzzz        zzzz        zzzzzzzzzzzzzzzzzzzzzz",
"zzzzzzzzzzzzzzzzzzzz    zzzzzzzzzzzzzzzz    zzzzzzzzzzzzzzzzzzzz",
"zzzzzzzzzzzzzzzzz    zzzzzzzzzzzzzzzzzzzzzz    zzzzzzzzzzzzzzzzz",
"zzzzzzzzzzzzzzzz   zzzzzzzzzzzzzzzzzzzzzzzzzz   zzzzzzzzzzzzzzzz",
"zzzzzzzzzzzzzz   zzzzzzzzzzzzzzzzzzzzzzzzzzzzzz   zzzzzzzzzzzzzz",
"zzzzzzzzzzzzz  zzzzzzzzzzz55550zz%%%%%zzzzzzzzzzz  zzzzzzzzzzzzz",
"zzzzzzzzzzz   zzzzzzzzzz55rrrr0zz,;;;;%%zzzzzzzzzz   zzzzzzzzzzz",
"zzzzzzzzzz  zzzzzzzz%%zzz5rr5r0zz%;%%;%zzz5zzzzzzzzz  zzzzzzzzzz",
"zzzzzzzzz  zzzzzzz%%;;;zz5r5rr0zz;;%;;%zz0055zzzzzzzz  zzzzzzzzz",
"zzzzzzzz  zzzzzzz%%;%;%zz50r5r0zz;;%;;%zz5rrr55zzzzzzz  zzzzzzzz",
"zzzzzzz  zzzzzzz%,;%;;,zzz5r5r0zz,;%;%zzz5r05rrrzzzzzzz  zzzzzzz",
"zzzzzzz zzzzzzzzz%%;;;;%zz0rrr5zz%;;;%zz0rrr55rzzzzzzzzz zzzzzzz",
"zzzzzz  zzzzzz5zzz%;%;;%zzi5550zz%%%;,zz5rr55rzzz%zzzzzz  zzzzzz",
"zzzzz  zzzzzz5r5zzz%;%%;,zzrzzzzzzzzzzzz5r50rizz,;%%zzzzz  zzzzz",
"zzzzz zzzzzz5r5rrzzz%;%%zzzzzzzzzzzzzzzz5rrr5zz%;%%%zzzzzz zzzzz",
"zzzz  zzzzz5r5rrr5zzz%zzzzzzzzzzzzzzzzzzz55rzz%;%;%;%zzzzz  zzzz",
"zzz  zzzzz5rr5r0r5zzzzzzzzzzzzzzzzzzzzzzzzzzz%;;;;%;,%zzzzz  zzz",
"zzz  zzzzzz55rrr5r5zzzzzzzzzzzzzzzzzzzzzzzzzz%;%;;;%%zzzzzz  zzz",
"zz  zzzzzzzzzr5rrr5zzzzzzzzzzzzzzzzzzzzzzzzzz%;;;;%zzzzzzzzz  zz",
"zz  zzzzz%zzzz5r55zzzzzzzzzzzzzzzzzzzzzzzzzzzz%;;%zzzzr5zzzz  zz",
"zz zzzzz%;;%zzzz5zzzzzzzzzzzzzzzzzzzzzzzzzzzzzz%zzzz5rr5zzzzz zz",
"z  zzzzz%;;%;,zzzzzzzzz###zzzzzzzzzzzz###zzzzzzzzz0r5r5r5zzzz  z",
"z  zzzz%;%;;;;%zzzzzzz#$$##zzzzzzzzzz##$$#zzzzzzzr5rrr5r5zzzz  z",
"z zzzzz%%%;;%;;%zzzzzz#$##$zzzzzzzzzz#$#$#zzzzzzz5r5r55r5zzzzz z",
"z zzzzz%;;;;;;%zzzzzzz##$#XzzzzzzzzzzX#$##zzzzzzz5rrrrrr55zzzz z",
"  zzzzz,,%,%%;%zzzzzzzz##XXXzzzzzzzzXXX##zzzzzzzz5555054zzzzzz  ",
"  zzzzzzzzzzz,zzzzzzzzzzzzXXXzzzzzzXXXzzzzzzzzzzzz4zzzzzzzzzzz  ",
"  zzzzzzzzzzzzzzzzzzzzzzzzzXXXzzzzXX.zzzzzzzzzzzzzzzzzzzzzzzzz  ",
"  zzzz55000izzzzzzzzzzzzzzzz.X#$$XXXzzzzzzzzzzzzzzzzfhhhkkzzzz  ",
" zzzzz5rrrr555zzzzzzzzzzzzzzz####$#zzzzzzzzzzzzzzzkklllllszzzzz ",
" zzzzz5r505rr5zzzzzzzzzzzzzzz$##$#$zzzzzzzzzzzzzzzslshsslszzzzz ",
" zzzzz5r5r5rr5zzzzzzzzzzzzzzz$$$#$$zzzzzzzzzzzzzzzslllsslszzzzz ",
" zzzzz5rrrr000zzzzzzzzzzzzzzzX#$$#Xzzzzzzzzzzzzzzzssshlllszzzzz ",
"  zzzz5500iizzzzzzzzzzzzzzzzXXX$$XXXzzzzzzzzzzzzzzzzzfhlhszzzz  ",
"  zzzzzzzzzzzzzzzzzzzzzzzzzXXXzzzzXXXzzzzzzzzzzzzzzzzzzzzzzzzz  ",
"  zzzzzzzzz,,,%zzzzzzzzzzzXXXzzzzzzXXXzzzzzzzzzzzz0zzzzzzzzzzz  ",
"  zzzzz,%%%,;;%zzzzzzzz#$#XXzzzzzzzzXX#$#zzzzzzzz5r550000zzzzz  ",
"z zzzzz%;;;;%;%zzzzzzz##$#Xzzzzzzzzzz###$#zzzzzzz5rrrrrr5zzzzz z",
"z zzzzz%;%;;%;,%zzzzzz#$#$$zzzzzzzzzz$##$#zzzzzzz5r5rr5r5zzzzz z",
"z  zzzz%;;%;;;%zzzzzzz#$$##zzzzzzzzzz##$$#zzzzzzz5rrr55r5zzzz  z",
"z  zzzzz%;;%%zzzzzzzzzz###zzzzzzzzzzzz###zzzzzzzzzz5rrrr5zzzz  z",
"zz zzzzz%;%,zzzzrzzzzzzzzzzzzzzzzzzzzzzzzzzzzzz;zzzzz5r5zzzzz zz",
"zz  zzzzz%zzzz55r5zzzzzzzzzzzzzzzzzzzzzzzzzzzz%;;%zzzz05zzzz  zz",
"zzz zzzzzzzz5rrr5r5zzzzzzzzzzzzzzzzzzzzzzzzzz%;%;;;%zzzzzzzz zzz",
"zzz  zzzzzzr5r5rrrrzzzzzzzzzzzzzzzzzzzzzzzzzz%;%;%;;;%zzzzz  zzz",
"zzzz zzzzz5r55rrr5zzzzzzzzzzzzzzzzzzzzzzzzzzzz%;%;;;;%zzzzz zzzz",
"zzzz  zzzzz5rrrr55zz%%zzzzzzzzzzzzzzzzzzz555zzz%;%%;%zzzzz  zzzz",
"zzzzz zzzzzz5rr05zzz%;%%zzzzzzzzzzzzzzz55rr5zzz%%;;%zzzzzz zzzzz",
"zzzzz  zzzzzz5r5zzz%;%;;,zz5zzzzzzzz;zz5rr5r5zzz%;%zzzzzz  zzzzz",
"zzzzzz  zzzzzz5zzz%;%;;%zzir550zz%%%%,zz5rr5r5zzz%zzzzzz  zzzzzz",
"zzzzzzz  zzzzzzzz%%;;%;%zz0rr00zz,;;;%zz5r5r5r5zzzzzzzz  zzzzzzz",
"zzzzzzzz zzzzzzz%,;%;;%zzz5rr50zz%;%;%zzz0rr5r0rzzzzzzz zzzzzzzz",
"zzzzzzzzz zzzzzzz%%;%;%zz0rr5r0zz;;;;;,zz0rrr55zzzzzzz zzzzzzzzz",
"zzzzzzzzz   zzzzzzz%%;,zz0rr0r0zz,;%;;%zz0r55zzzzzzz   zzzzzzzzz",
"zzzzzzzzzzz  zzzzzzzz%zzz0rrr50zz%;%;;,,zz5zzzzzzzz  zzzzzzzzzzz",
"zzzzzzzzzzzz  zzzzzzzzzzrrirrrrzz;;;;%%%zzzzzzzzzz  zzzzzzzzzzzz",
"zzzzzzzzzzzzz  zzzzzzzzzzzr5555zz%%%%zzzzzzzzzzzz  zzzzzzzzzzzzz",
"zzzzzzzzzzzzzz   zzzzzzzzzzzzzzzzzzzzzzzzzzzzzz   zzzzzzzzzzzzzz",
"zzzzzzzzzzzzzzzz   zzzzzzzzzzzzzzzzzzzzzzzzzz   zzzzzzzzzzzzzzzz",
"zzzzzzzzzzzzzzzzzz    zzzzzzzzzzzzzzzzzzzz    zzzzzzzzzzzzzzzzzz",
"zzzzzzzzzzzzzzzzzzzz     zzzzzzzzzzzzzz     zzzzzzzzzzzzzzzzzzzz",
"zzzzzzzzzzzzzzzzzzzzzzz                  zzzzzzzzzzzzzzzzzzzzzzz",
"zzzzzzzzzzzzzzzzzzzzzzzzzzzz        zzzzzzzzzzzzzzzzzzzzzzzzzzzz"
};
