/* XPM */
static char *bitcoin48[] = {
/* columns rows colors chars-per-pixel */
"48 48 49 1 ",
"  c black",
". c #494949",
"X c gray29",
"o c #4B4B4B",
"O c #4C4C4C",
"+ c gray30",
"@ c gray31",
"# c #505050",
"$ c #5D5F5F",
"% c gray37",
"& c #5F5E5E",
"* c #5F5F5E",
"= c #5E5F5F",
"- c #5F5F5F",
"; c #615D5C",
": c #605D5D",
"> c #615D5D",
", c #605E5D",
"< c #605E5E",
"1 c #5C6060",
"2 c #E70E05",
"3 c #EE0903",
"4 c #EB0A05",
"5 c #EA0B05",
"6 c #EB0B05",
"7 c #EB0A06",
"8 c #EA0B06",
"9 c #EB0B06",
"0 c #EA0B07",
"q c #EC0A05",
"w c #EC0B05",
"e c #EC0A06",
"r c #EC0B06",
"t c #E90C05",
"y c #E80D05",
"u c #EA0C05",
"i c #E80C07",
"p c #E90C07",
"a c #EA0C07",
"s c #E70D08",
"d c #13B700",
"f c #17B400",
"g c #16B500",
"h c #17B500",
"j c #15B600",
"k c #14B700",
"l c #18B400",
"z c #14B800",
"x c None",
/* pixels */
"xxxxxxxxxxxxxxxxxxx          xxxxxxxxxxxxxxxxxxx",
"xxxxxxxxxxxxxxx     xxxxxxxx     xxxxxxxxxxxxxxx",
"xxxxxxxxxxxxx   xxxxxxxxxxxxxxxx   xxxxxxxxxxxxx",
"xxxxxxxxxxx   xxxxxxxxxxxxxxxxxxxx   xxxxxxxxxxx",
"xxxxxxxxxx  xxxxxxxxxx9xx>xxxxxxxxxx  xxxxxxxxxx",
"xxxxxxxxx xxxxxxxx9q999xx>-%%%xxxxxxxx xxxxxxxxx",
"xxxxxxxx xxxxxx%>xarqqpxx---%>xa9xxxxxx xxxxxxxx",
"xxxxxxx xxxxx%>1>xxp9q9xx>--%xx9rqxxxxxx xxxxxxx",
"xxxxxx xxxxx%1-%>%xp999xx--->xxrrpqrxxxxx xxxxxx",
"xxxxx xxxxxxx%->1>xx999xx>1%xxarrqqxxxxxxx xxxxx",
"xxxx xxxxxqpxx>%>%xxp99xxx%>xxpqqrxx>%xxxxx xxxx",
"xxx  xxxx9qqsxx%-%xxxxxxxxxxxx9rppx>%-%xxxx  xxx",
"xxx xxxx9q9q9xx>%xxxxxxxxxxxxxx9pxx>1%1%xxxx xxx",
"xx  xxxx9q99q9xxxxxxxxxxxxxxxxxxxx>1>-->xxxx  xx",
"xx xxxxxxp9q9qxxxxxxxxxxxxxxxxxxxx1>1>>xxxxxx xx",
"x  xxx%%xxxpqxxxxxxxxxxxxxxxxxxxxxx1>xxxqqxxx  x",
"x xxxx%1>xxxxxxxxxxxxxxxxxxxxxxxxxxxxxap99xxxx x",
"x xxxx%>1>>xxxxxx#@#xxxxxxxx#@@xxxxxxqqr9q9xxx x",
"x xxx%>1->1>xxxxx@#@xxxxxxxx@#@xxxxxxqprq99xxx x",
"  xxx>%>>1%xxxxxx@@XXxxxxxxXX@#xxxxxxqqrpp2xxx  ",
" xxxxxxxx>>xxxxxxxxXXXxxxxXXXxxxxxxxxppxxxxxxxx ",
" xxxx3xxxxxxxxxxxxxx.XXxx.XXxxxxxxxxxxxxxxkxxxx ",
" xxx99paaaxxxxxxxxxxxXX##@Xxxxxxxxxxxxklkkkdxxx ",
" xxxqrqrrpxxxxxxxxxxxx##@@xxxxxxxxxxxxkzzzzkxxx ",
" xxxqqrrprxxxxxxxxxxxx@#@@xxxxxxxxxxxxkzkkzdxxx ",
" xxxqppaarxxxxxxxxxxxXX#@XXxxxxxxxxxxxlllkkkxxx ",
" xxxxxxxxxxxxxxxxxxxXXxxxXXXxxxxxxxxxxxxxxxxxxx ",
" xxxxxxx1->xxxxxxxxXXxxxxxXXXxxxxxxxxp2xxxxxxxx ",
"  xxx>>>>%%xxxxxx@#@xxxxxxxXX##xxxxxx9qp9ppxxx  ",
"x xxx%-1%%1>xxxxx@@@xxxxxxxx##@@xxxxxqrrqq9xxx x",
"x xxxx%>%%>xxxxxx@@@xxxxxxxx@@@xxxxxxprqpq9xxx x",
"x xxxx%1>xxxxxxxxxxxxxxxxxxxxxxxxxxxxxxpqqxxxx x",
"xx xxxx%xxx999xxxxxxxxxxxxxxxxxxxxx%>xxxxqxxx xx",
"xx xxxxxxa9q9qxxxxxxxxxxxxxxxxxxxx--1%>xxxxxx xx",
"xx  xxxxrq99q9xxxxxxxxxxxxxxxxxxxx%->-1>xxxx  xx",
"xxx xxxx999qpxx>%xxxxxxxxxxxxxx9pxx%-%*%xxxx xxx",
"xxxx xxxxqpqxxx%>%xxxxxxxxxxxxqqqxxx%%%xxxx xxxx",
"xxxx  xxxxqaxx>-->xxp99xx>%>xxpr99xxx%xxxx  xxxx",
"xxxxx xxxxxxx>1>1>xx9qaxx>1-xxaq9r9xxxxxxx xxxxx",
"xxxxxx xxxxx%--1%>xp990xx*->>xppqqq9xxxxx xxxxxx",
"xxxxxxx xxxxx%%1>xxpqq9xx>-->xxpq9xxxxxx xxxxxxx",
"xxxxxxxx xxxxxx>>xqprr9xx>-1%%xa9xxxxxx xxxxxxxx",
"xxxxxxxxx  xxxxxxx9qq99xx*1>%%xxxxxxx  xxxxxxxxx",
"xxxxxxxxxx  xxxxxxxxxx9xx>xxxxxxxxxx  xxxxxxxxxx",
"xxxxxxxxxxxx  xxxxxxxxxxxxxxxxxxxx  xxxxxxxxxxxx",
"xxxxxxxxxxxxxx   xxxxxxxxxxxxxx   xxxxxxxxxxxxxx",
"xxxxxxxxxxxxxxxx     xxxxxx     xxxxxxxxxxxxxxxx",
"xxxxxxxxxxxxxxxxxxxx        xxxxxxxxxxxxxxxxxxxx"
};
