/* XPM */
static char *bitcoin24[] = {
/* columns rows colors chars-per-pixel */
"24 24 81 1 ",
"  c black",
". c #010000",
"X c #000100",
"o c #010101",
"O c #020000",
"+ c #030000",
"@ c #020101",
"# c #020202",
"$ c #040000",
"% c #060000",
"& c #070000",
"* c #494949",
"= c #4E4E4E",
"- c gray31",
"; c #505050",
": c #5E5C5C",
"> c #5F5C5C",
", c #5F5D5D",
"< c #5D5E5E",
"1 c #5C5F5F",
"2 c #5F5E5E",
"3 c #5E5F5F",
"4 c #605C5C",
"5 c #605D5D",
"6 c #615D5D",
"7 c #625C5C",
"8 c #625D5D",
"9 c #605E5D",
"0 c #605E5E",
"q c #4D6969",
"w c #4F6868",
"e c #4C696A",
"r c #576364",
"t c #536565",
"y c #536566",
"u c #526666",
"i c #546565",
"p c #566464",
"a c #5B6060",
"s c #5A6161",
"d c #5B6161",
"f c #596262",
"g c #5C6060",
"h c #506768",
"j c #E50B06",
"k c #E60B06",
"l c #E70C07",
"z c #EA0904",
"x c #E90A05",
"c c #E90B05",
"v c #EA0A05",
"b c #EB0A05",
"n c #EA0B06",
"m c #EB0B06",
"M c #EA0B07",
"N c #ED0904",
"B c #EE0904",
"V c #EC0A05",
"C c #EC0A06",
"Z c #E80C05",
"A c #E90C07",
"S c #E80D08",
"D c #F30601",
"F c #F40500",
"G c #F60400",
"H c #F70400",
"J c #F40601",
"K c #F50306",
"L c #F10606",
"P c #FB0100",
"I c #F90200",
"U c #FA0200",
"Y c #FD0000",
"T c #F00803",
"R c #0FB800",
"E c #0ABF00",
"W c #0CBE00",
"Q c #13B500",
"! c #11B900",
"~ c #07C200",
"^ c None",
/* pixels */
"^^^^^^^^^$&.^$.^^^^^^^^^",
"^^^^^^.^^^^^^^^^^.^^^^^^",
"^^^^^.^^^^S^^6^^^^.^^^^^",
"^^^^^^^:^PSPe6h^j^^^^^^^",
"^^^^^^a6p^mPe6^HSN^^^^^^",
"^^$^^N^pg^^^^^^ND^g^^.^^",
"^.^^NSD^^^^^^^^^^p6g^^.^",
"^^^^^In^^^^^^^^^^6h^^^^^",
"^^^:p^^^^;^^^^;^^^^FM^^^",
"#^^a:6^^;-^^^^=;^^CCL^^&",
".^^^^^^^^^*^^*^^^^^^^^^.",
"$^nNT^^^^^^;-^^^^^^~!Q^.",
".^nTF^^^^^^==^^^^^^~~R^.",
".^^^^^^^^^*^^*^^^^^^^^^.",
"#^^a6g^^;=^^^^=;^^NSL^^&",
"^^^:u^^^^;^^^^;^^^^IN^^^",
"^^^^^HM^^^^^^^^^^6p^^^^^",
"^.^^MSF^^^^^^^^^^p6:^^.^",
"^^$^^N^rg^^^^^^mT^g^^#^^",
"^^^^^^g6p^mPh0^FSm^^^^^^",
"^^^^^^^6^PSPe6h^l^^^^^^^",
"^^^^^.^^^^M^^6^^^^.^^^^^",
"^^^^^^.^^^^^^^^^^.^^^^^^",
"^^^^^^^^^&$..#.^^^^^^^^^"
};
