/* XPM */
static char *bitcoin128[] = {
/* columns rows colors chars-per-pixel */
"128 128 24 1 ",
"  c black",
". c #494949",
"X c gray29",
"o c #4B4B4B",
"O c #4C4C4C",
"+ c gray30",
"@ c #4E4E4E",
"# c gray31",
"$ c #505050",
"% c gray37",
"& c #5F5F5F",
"* c #EB0A05",
"= c #EB0B05",
"- c #EB0A06",
"; c #EB0B06",
": c #EC0A05",
"> c #EC0B05",
", c #EC0A06",
"< c #EC0B06",
"1 c #13B700",
"2 c #14B700",
"3 c #13B800",
"4 c #14B800",
"5 c None",
/* pixels */
"55555555555555555555555555555555555555555555555555555555                55555555555555555555555555555555555555555555555555555555",
"55555555555555555555555555555555555555555555555555                            55555555555555555555555555555555555555555555555555",
"5555555555555555555555555555555555555555555555                                    5555555555555555555555555555555555555555555555",
"5555555555555555555555555555555555555555555            555555555555555555            5555555555555555555555555555555555555555555",
"5555555555555555555555555555555555555555          5555555555555555555555555555          5555555555555555555555555555555555555555",
"55555555555555555555555555555555555555        555555555555555555555555555555555555        55555555555555555555555555555555555555",
"555555555555555555555555555555555555       555555555555555555555555555555555555555555       555555555555555555555555555555555555",
"5555555555555555555555555555555555      555555555555555555555555555555555555555555555555      5555555555555555555555555555555555",
"55555555555555555555555555555555      5555555555555555555555555555555555555555555555555555      55555555555555555555555555555555",
"555555555555555555555555555555      55555555555555555555555555555555555555555555555555555555      555555555555555555555555555555",
"55555555555555555555555555555     555555555555555555555555555555555555555555555555555555555555     55555555555555555555555555555",
"555555555555555555555555555      555555555555555555555555555555555555555555555555555555555555555     555555555555555555555555555",
"55555555555555555555555555     555555555555555555555555*******5555%%%%%%%%55555555555555555555555     55555555555555555555555555",
"5555555555555555555555555    5555555555555555555555*****><<<<*5555%&&&&&&%%%&%555555555555555555555    5555555555555555555555555",
"55555555555555555555555     55555555555555555555****<<<<*;**<*5555%&%&%%&&&&&%%%55555555555555555555     55555555555555555555555",
"5555555555555555555555     5555555555555555555555*<<**<<<<<*<*5555%&%&&&&&&%%&%5555555555555555555555     5555555555555555555555",
"555555555555555555555    55555555555555555%%55555*<*<<<<<<<*,*5555%&%&&&&&&&%&%55555*555555555555555555    555555555555555555555",
"55555555555555555555    555555555555555%%%%&%5555*=<<<<<<<<*<;5555%&%&&&&&&&&%%5555*>**55555555555555555    55555555555555555555",
"5555555555555555555    555555555555555%%&&%&%55555*<>,<<<<<<<*5555%&%&&&&&&%&%55555*<,>**5555555555555555    5555555555555555555",
"555555555555555555    55555555555555%%&&%&&&%%5555*<*<<<<<<*<*5555%&%&&&&&&&&%55555*<**,<**555555555555555    555555555555555555",
"55555555555555555    55555555555555%&&%&&&&%&%5555**<<<<<<<*<*5555%&%&&&&&&&%%5555**<<<;*<;**55555555555555    55555555555555555",
"5555555555555555    5555555555555%%%&%&&&&&&&%55555*<*<<<<<*<*5555%&%&&&&&%&%55555*<=<<,<*>,**55555555555555    5555555555555555",
"555555555555555    5555555555555%%&&&&&&&&&&&&%5555*,<<<<<<=,=5555%&%&&&&&&&%55555*<*<<<<<<*<<*55555555555555    555555555555555",
"55555555555555    555555555555555%&%&&&&&&&&%&%55555><<<<<,;<*5555%&%&&&&%&%55555*<<<<<<<<<<*,;*55555555555555    55555555555555",
"55555555555555   55555555555555555%&%&&&&&&&&&%55555*,*<<<<;,;5555%&%&&&&%&%55555*<*<<<<<<<<*<*5555555555555555   55555555555555",
"5555555555555   5555555555555555555%&%&&&&&&&%&%5555*><<,;**>;5555%&%%%&&&%%55555*<<<<<<<<<=>*555555555555555555   5555555555555",
"555555555555    555555555555**55555%%&%&&&&&&%&%55555*<*,<>>,*5555%&&&&&%&%55555*<*<<<<<<<*<*55555%%555555555555    555555555555",
"55555555555    555555555555*<**55555%%&%&&&&&&&%&5555*<<******5555%%%%%%%&%55555*<*<<<<<<*<*55555%%&%%55555555555    55555555555",
"55555555555   555555555555*<*<**55555%&&&&&&&&%&%5555****555555555555555%%%5555**<<<<<<<*<**5555%&&%&%%55555555555   55555555555",
"5555555555   555555555555*<*<*<*555555%&&&&&&&%&%555555555555555555555555555555*>=<<<<<*<=*5555%%&%&%&%%55555555555   5555555555",
"555555555    55555555555*<=<<<*<*555555%&&&&%&&%%555555555555555555555555555555*,<*;<<<>>*55555%&%&&&%&%55555555555    555555555",
"555555555   55555555555*<<<<<<<*<*555555%&%&&&%55555555555555555555555555555555***<,*<>>*55555&&%&&&&&%&&55555555555   555555555",
"55555555   55555555555**<*<<<<<<>;*555555&&&%%55555555555555555555555555555555555**;<*>*55555%&%&&&&&&&%&%55555555555   55555555",
"55555555   55555555555*<*<<<<<<<*<;*555555%%555555555555555555555555555555555555555**,*55555%&%&&&&&&&&&&%%5555555555   55555555",
"5555555   55555555555*<*<<<<<<<<<*<**555555555555555555555555555555555555555555555555*55555%%&&&&&&&&&&&%&%55555555555   5555555",
"5555555   5555555555*,<*<<<<<<<<<<*<*555555555555555555555555555555555555555555555555555555%&%&&&&&&&&&%%&&%5555555555   5555555",
"555555   555555555555**><*<<<<<<<<<*<*5555555555555555555555555555555555555555555555555555%&%&&&&&&&&&%&&%%555555555555   555555",
"555555   55555555555555**<=<<<<<<<<<*<*55555555555555555555555555555555555555555555555555%&&&&&&&&&&%&&%&55555555555555   555555",
"55555   5555555555555555**<<*<<<<<<*<*5555555555555555555555555555555555555555555555555555%&&&&&&&%&&%%55555555555555555   55555",
"55555   555555555555555555**<<*<<<*<*555555555555555555555555555555555555555555555555555555%&%&&&%&%%%555555555555555555   55555",
"5555   5555555555%%555555555*=,***>*55555555555555555555555555555555555555555555555555555555&&%%&&%%55555555***5555555555   5555",
"5555   5555555555%&%%55555555**>,,;*555555555555555555555555555555555555555555555555555555555%&&&%555555555*;<*5555555555   5555",
"5555   555555555%%&&%%%55555555**<*5555555555555555555555555555555555555555555555555555555555%%%%55555555**,<*<*555555555   5555",
"555   5555555555%&%%&&%%555555555*555555555555555555555555555555555555555555555555555555555555%55555555**<,;<,<*5555555555   555",
"555   5555555555%&&&&%&&&%555555555555555555555####55555555555555555555555555####555555555555555555555*><>*<<<*,*555555555   555",
"555   555555555%&%&&&&&%&&%%55555555555555555##$$$$#555555555555555555555555##$$$##55555555555555555**<<*,<<<<><*555555555   555",
"55   5555555555%&&&&&&&&&%&&%%555555555555555#$####$$5555555555555555555555#$$###$#555555555555555**>,*,<<<<<<<<>*555555555   55",
"55   555555555%%&%&&&&&&&&&%&%%5555555555555#$#$$$$$##55555555555555555555###$$$$#$#5555555555555*>>;>,,<<<<<<<*,*555555555   55",
"55   555555555%&%&&&&&&&&&&&%&%5555555555555#$#$$$$###55555555555555555555#$#$$$$#$#5555555555555*<*<<<<<<<<<<<*,*555555555   55",
"55  5555555555%&%&&&&&&&&&&&&&%5555555555555#$#$$$#$$#55555555555555555555#$$#$$$#$#55555555555555*<><<<<<<<<<<,,;*55555555   55",
"5   5555555555%&%&&&&&&&&&&%&%55555555555555##$#$#$$oo55555555555555555555o.#$#$$#$#55555555555555*,*,<<<<<<<<;>*<*555555555   5",
"5   555555555%&&&&%%%%&&&&&%&%555555555555555#$$#$$o..55555555555555555555...#$#$$#555555555555555*;<<<<,;*=<<<,<<*555555555   5",
"5   555555555%%&%%&&&&&%%%%%%&5555555555555555###$+..o.555555555555555555.o...$$##55555555555555555*<*;<<<<<;*****5555555555   5",
"5   5555555555555%%%%%%&&&&&%555555555555555555$#$......5555555555555555...o.o###555555555555555555*<<,******555555555555555   5",
"5   5555555555555555555%%%%%%55555555555555555555555.o.o.55555555555555.o...55555555555555555555555*****55555555555555555555   5",
"5  55555555555555555555555555555555555555555555555555......5555555555..o...55555555555555555555555555555555555555555555555555  5",
"   555555555555555555555555555555555555555555555555555...o..55555555....o.555555555555555555555555555555555555555555555555555   ",
"   555555555****555555555555555555555555555555555555555......55$#$5..o.o.5555555555555555555555555555555555555551111555555555   ",
"   555555555*<;;=****55555555555555555555555555555555555..o..+$##$$..o..55555555555555555555555555555555551111114341555555555   ",
"   555555555*,*<<,,>>*****5555555555555555555555555555555.o.+$#$$#$+...555555555555555555555555555555113111444444243555555555   ",
"   555555555*<,,<**=<<<<>>**555555555555555555555555555555.+$$#$$$#$+o5555555555555555555555555555551444444111134341555555555   ",
"   555555555*<*><<<<<*=***<*555555555555555555555555555555+$##$$$$$#$#5555555555555555555555555555551321244444444141555555555   ",
"   555555555*<<><<<<<<<<,*,*555555555555555555555555555555$$#$$$$$$$#$#555555555555555555555555555551344444444444341555555555   ",
"   555555555*<>><<<<<<<<<>;*555555555555555555555555555555$$$$$$$$$$###555555555555555555555555555551244444444444341555555555   ",
"   555555555*<*<<<<<<<<<<<=*555555555555555555555555555555$$#$$$$$$$###555555555555555555555555555551424444444444441555555555   ",
"   555555555*,><<<<<<<<,<<<,555555555555555555555555555555$$#$$$$$$#$$5555555555555555555555555555551144444444444441555555555   ",
"   555555555*<*,<<>,<;;*<,,*555555555555555555555555555555.+$#$$$$#$++5555555555555555555555555555551444111124444341555555555   ",
"   555555555*<;;*;><<,<,,>>*55555555555555555555555555555...+$####$+..5555555555555555555555555555551112444444111141555555555   ",
"   555555555*,;<,<<;**;****55555555555555555555555555555.....+$##$+....555555555555555555555555555555551111112444341555555555   ",
"   555555555*>*******5555555555555555555555555555555555....o.+$##$o.o.o.55555555555555555555555555555555555551131111555555555   ",
"   555555555**5555555555555555555555555555555555555555......5555555......5555555555555555555555555555555555555555511555555555   ",
"   55555555555555555555555555555555555555555555555555..o.o.5555555555.o...555555555555555555555555555555555555555555555555555   ",
"5  5555555555555555555555%%%%55555555555555555555555..o...555555555555...o.55555555555555555555555555555555555555555555555555  5",
"5   5555555555555555%%%%%%&&%5555555555555555555555....o.55555555555555......5555555555555555555555*=******55555555555555555   5",
"5   55555555555%&%%%%&&&&&&&%%55555555555555555#$$o.o...5555555555555555.o.o.+$$#555555555555555555*<<<<;;*>=****>5555555555   5",
"5   555555555%%%%&&&&&%%&&&&&%555555555555555####$#o...555555555555555555...o#$####5555555555555555*<*<*,<<,<<<<<,*555555555   5",
"5   555555555%&&&&%&&&&&&&&&&%555555555555555#$$$#$#+.55555555555555555555.o#$#$$$#555555555555555*<;<<<,<<<<>***<*555555555   5",
"55  5555555555%&%&&&&&&&&&&&&%%5555555555555#$#$$$#$++55555555555555555555+###$$$#$#55555555555555*<*<<<<<<<<,<<<**555555555  55",
"55   555555555%&%&&&&&&&&&&&%&%5555555555555#$#$$$$#$$55555555555555555555$$#$$$$#$#55555555555555*,<<<<<<<<<<<*<*555555555   55",
"55   555555555%&&&&&&&&&&&&%&&%%555555555555#$#$$$$$$$55555555555555555555##$$$$$#$#5555555555555*>*;,<<<<<<<<<*<*555555555   55",
"55   5555555555&&%&&&&&&&&%&&%55555555555555$$#$$$#$$#55555555555555555555$#$#$$$#$#5555555555555*<<<*<,<<<<<<<,<*555555555   55",
"555  5555555555%&%&&&&&&%&&%&5555555555555555#$$$$$$#5555555555555555555555#$$##$$#5555555555555555**<<*<<<<<<<<**555555555  555",
"555   555555555%%&&&&&%%&%%5555555555555555555#$###$555555555555555555555555##$$$##555555555555555555**><*<<<<*<*555555555   555",
"555   5555555555%&%&%%&&%5555555555555555555555####55555555555555555555555555####555555555555555555555***<,=<<*<*555555555   555",
"555   5555555555%%&%&&%&55555555**555555555555555555555555555555555555555555555555555555555555%555555555**=<,*<*5555555555   555",
"5555   5555555555%&&%%55555555***>*5555555555555555555555555555555555555555555555555555555555%&%%555555555**,><*555555555   5555",
"5555   5555555555%&%%55555555**,>*<*55555555555555555555555555555555555555555555555555555555%&%&&%%555555555****555555555   5555",
"55555   5555555555%55555555**>>*,<<<*555555555555555555555555555555555555555555555555555555%%&%%%&&%&555555555*555555555   55555",
"55555   55555555555555555**,,;*<<<*<**55555555555555555555555555555555555555555555555555555&&%&&&&%&&%%55555555555555555   55555",
"55555    555555555555555*;<;*<<<<<<*<**555555555555555555555555555555555555555555555555555%&%&&&&&&%%&&%%55555555555555    55555",
"555555   5555555555555**,<*<<<<<<<<,<;*55555555555555555555555555555555555555555555555555%&%&&&&&&&&&%%&%%%555555555555   555555",
"555555    55555555555*=<=<<<<<<<<<<<,*5555555555555555555555555555555555555555555555555555%&&&&&&&&&&&&%&&&%5555555555    555555",
"5555555   5555555555**<*<<<<<<<<<<*<*555555555555555555555555555555555555555555555555555555%&%&&&&&&&&&&&&%55555555555   5555555",
"5555555    5555555555*<;<<<<<<<<<*<*555555%555555555555555555555555555555555555555555*555555%&%&&&&&&&&&&%%5555555555    5555555",
"55555555   55555555555*<*<<<<<<<*<*555555%%%555555555555555555555555555555555555555**;*555555%&%&&&&&&&%&%55555555555   55555555",
"55555555    55555555555*<*<<<<<=<;*55555%%&&%%555555555555555555555555555555555555**>>,*555555%&%&&&&&&&&55555555555    55555555",
"555555555   55555555555**>*<<<<<<*555555%&%&&%%%55555555555555555555555555555555**<<*;<**55555%%&%&&&&&%%55555555555   555555555",
"5555555555   55555555555**,*<<=<*555555%&%&&%&&%%55555555555555555555555555555**<<*,,<*<*555555%%&%&&%&%55555555555   5555555555",
"5555555555    55555555555*;,*><*555555%&%&&&&&%&%555555555555555555555555555555*<*<<<<<*<*555555%&&&%&%55555555555    5555555555",
"55555555555   555555555555**,<**55555%&%&&&&&&%&%5555****55555555555555%%%55555*<<<<<<<<><*555555%&&&%555555555555   55555555555",
"555555555555   555555555555*=;*55555%%&&&&&&&&&%55555*<<******5555%%%%%&&&%55555>,<<<<<<>;,*555555%%%555555555555   555555555555",
"555555555555    555555555555**55555%%&%&&&&&&%&%55555*<*<<<<,,5555&&&&&&%&%55555*>*<<<<<,=<**555555%555555555555    555555555555",
"5555555555555    555555555555555555%&%&&&&&&&%&%5555**<<<<*;=*5555%%%&&&&&%%5555*;,<<<<<<<*<**55555555555555555    5555555555555",
"55555555555555    5555555555555555%&%&&&&&&&%&%55555*<*<<<,,<,5555%&%&&&&%&%55555;<<<<<<<<<*<*5555555555555555    55555555555555",
"555555555555555    55555555555555%&&&&&&&&&&%&%55555*<<<<<<,,;5555%&%&&&&%&%55555*<;,<<<<<<<*<*55555555555555    555555555555555",
"5555555555555555   5555555555555%%&%&&&&&&&&&%%5555*<;<<<<<,;,5555%&%&&&&&%&%5555*,;<<<<<,<*<<*55555555555555   5555555555555555",
"55555555555555555   5555555555555%%&&%&&&&&%&%55555*<*<<<<<;<;5555&&&&&&&&%&%55555*<;<<<<;*<<*55555555555555   55555555555555555",
"55555555555555555    55555555555555%%&%%&&&%&%5555*><,<<<<<;<;5555%&&&&&&&&&%%5555*,*<<;*<<**55555555555555    55555555555555555",
"555555555555555555    55555555555555%%&&%%&&&%5555*<>><<<<<;<;5555%&%&&&&&&%&%5555*=<=*<<**555555555555555    555555555555555555",
"5555555555555555555     55555555555555%%&&&&%55555*<<,<<<<<;,;5555%&%&&&&&&&&%55555*<<,;*555555555555555     5555555555555555555",
"55555555555555555555     555555555555555%%%&%5555**<<<<<<<<<<<5555%&%&&&&&&&&%%5555*<**5555555555555555     55555555555555555555",
"5555555555555555555555    5555555555555555%%%5555*<*<<<<<<<<<<5555%&%&&&&&&&%&&5555**55555555555555555    5555555555555555555555",
"55555555555555555555555    5555555555555555555555*<**<*><<<,,>5555%&%&&&&%%%%&%%555555555555555555555    55555555555555555555555",
"555555555555555555555555     55555555555555555555**<<<<>*<<;**5555%&%%%%&&&&&%%55555555555555555555     555555555555555555555555",
"5555555555555555555555555     555555555555555555555**=**<>,<<<5555%&&&&&%%%%5555555555555555555555     5555555555555555555555555",
"555555555555555555555555555     55555555555555555555555*******5555%%%%%%%55555555555555555555555     555555555555555555555555555",
"5555555555555555555555555555     55555555555555555555555555555555555555555555555555555555555555     5555555555555555555555555555",
"555555555555555555555555555555     5555555555555555555555555555555555555555555555555555555555     555555555555555555555555555555",
"5555555555555555555555555555555      555555555555555555555555555555555555555555555555555555      5555555555555555555555555555555",
"555555555555555555555555555555555      55555555555555555555555555555555555555555555555555      555555555555555555555555555555555",
"55555555555555555555555555555555555       55555555555555555555555555555555555555555555       55555555555555555555555555555555555",
"5555555555555555555555555555555555555       5555555555555555555555555555555555555555       5555555555555555555555555555555555555",
"555555555555555555555555555555555555555         55555555555555555555555555555555         555555555555555555555555555555555555555",
"555555555555555555555555555555555555555555          555555555555555555555555          555555555555555555555555555555555555555555",
"555555555555555555555555555555555555555555555              5555555555              555555555555555555555555555555555555555555555",
"555555555555555555555555555555555555555555555555                                555555555555555555555555555555555555555555555555",
"55555555555555555555555555555555555555555555555555555                      55555555555555555555555555555555555555555555555555555",
"55555555555555555555555555555555555555555555555555555555555555    55555555555555555555555555555555555555555555555555555555555555"
};
