/* XPM */
static char *bitcoin16[] = {
/* columns rows colors chars-per-pixel */
"16 16 48 1 ",
"  c gray30",
". c #4E4E4E",
"X c #5D5F5F",
"o c #724F4E",
"O c #70504F",
"+ c #546363",
"@ c #556363",
"# c #576262",
"$ c #536464",
"% c #526565",
"& c #536565",
"* c #536566",
"= c #506767",
"- c #566666",
"; c #566767",
": c #596161",
"> c #5B6061",
", c #5B6262",
"< c #5C6B6C",
"1 c #686767",
"2 c #6A6868",
"3 c #973C3A",
"4 c #AE2F29",
"5 c #D8120E",
"6 c #D11612",
"7 c #EE0702",
"8 c #EF0702",
"9 c #ED0803",
"0 c #EF0B03",
"q c #EE0905",
"w c #ED0A06",
"e c #F10500",
"r c #F20400",
"t c #F20500",
"y c #F10601",
"u c #F50400",
"i c #F40500",
"p c #FB0400",
"a c #FC0500",
"s c #F80304",
"d c #FA0006",
"f c #F80306",
"g c #FC0006",
"h c #F20901",
"j c #8D4241",
"k c #0BBC00",
"l c #05C100",
"z c None",
/* pixels */
"zzzzzzzzzzzzzzzz",
"zzzzzzzzzzzzzzzz",
"zzzz1*8y*,azzzzz",
"zzzzo*zzzzu6<zzz",
"zzzyqzzzzzzX%zzz",
"zz,jzzzzzzzzzhzz",
"zz%%zz zz zzddzz",
"zzyzzzz .zzzzlzz",
"zzqzzzz  zzzzkzz",
"zz%%zz zz zzsgzz",
"zz,3zzzzzzzz40zz",
"zzzyqzzzzzz,+zzz",
"zzzzO*zzzzi5zzzz",
"zzzz2*hy@,azzzzz",
"zzzzzzzzzzzzzzzz",
"zzzzzzzzzzzzzzzz"
};
