<?xml version="1.0" encoding="UTF-8" standalone="no"?>
<!-- Created with Inkscape (http://www.inkscape.org/) -->

<svg
   xmlns:dc="http://purl.org/dc/elements/1.1/"
   xmlns:cc="http://creativecommons.org/ns#"
   xmlns:rdf="http://www.w3.org/1999/02/22-rdf-syntax-ns#"
   xmlns:svg="http://www.w3.org/2000/svg"
   xmlns="http://www.w3.org/2000/svg"
   xmlns:xlink="http://www.w3.org/1999/xlink"
   xmlns:sodipodi="http://sodipodi.sourceforge.net/DTD/sodipodi-0.dtd"
   xmlns:inkscape="http://www.inkscape.org/namespaces/inkscape"
   width="202.34048mm"
   height="201.8586mm"
   viewBox="0 0 716.95447 715.24699"
   id="svg2"
   version="1.1"
   inkscape:version="0.91 r13725"
   sodipodi:docname="bitcoin.svg">
  <defs
     id="defs4" />
  <sodipodi:namedview
     id="base"
     pagecolor="#ffffff"
     bordercolor="#666666"
     borderopacity="1.0"
     inkscape:pageopacity="0.0"
     inkscape:pageshadow="2"
     inkscape:zoom="1.4"
     inkscape:cx="297.75252"
     inkscape:cy="369.05627"
     inkscape:document-units="px"
     inkscape:current-layer="layer2"
     showgrid="false"
     fit-margin-top="0"
     fit-margin-left="0"
     fit-margin-right="0"
     fit-margin-bottom="0"
     inkscape:window-width="2952"
     inkscape:window-height="1894"
     inkscape:window-x="360"
     inkscape:window-y="42"
     inkscape:window-maximized="0" />
  <metadata
     id="metadata7">
    <rdf:RDF>
      <cc:Work
         rdf:about="">
        <dc:format>image/svg+xml</dc:format>
        <dc:type
           rdf:resource="http://purl.org/dc/dcmitype/StillImage" />
        <dc:title></dc:title>
      </cc:Work>
    </rdf:RDF>
  </metadata>
  <g
     inkscape:groupmode="layer"
     id="layer4"
     inkscape:label="Cross"
     transform="translate(-1.3406372,79.113059)" />
  <g
     inkscape:groupmode="layer"
     id="layer3"
     inkscape:label="Divisions"
     transform="translate(-1.3406372,79.113059)" />
  <g
     inkscape:groupmode="layer"
     id="layer2"
     inkscape:label="Ring"
     transform="translate(-1.3406372,79.113059)">
    <g
       id="g4527"
       transform="matrix(1.1268613,0,0,1.1268613,-0.17007503,-80.700803)"
       inkscape:export-xdpi="90.093582"
       inkscape:export-ydpi="90.093582">
      <g
         id="g4467">
        <ellipse
           style="fill:#505050;fill-opacity:1;stroke:none;stroke-width:14;stroke-miterlimit:4;stroke-dasharray:none;stroke-opacity:1"
           id="path4357"
           cx="320.72342"
           cy="318.51895"
           rx="32.324883"
           ry="31.567266" />
        <ellipse
           style="fill:#505050;fill-opacity:1;stroke:none;stroke-width:14;stroke-miterlimit:4;stroke-dasharray:none;stroke-opacity:1"
           id="path4357-7"
           cx="244.83943"
           cy="244.93944"
           rx="24.748739"
           ry="24.168688" />
        <use
           x="0"
           y="0"
           xlink:href="#path4357-7"
           id="use4374"
           transform="translate(149.64286,0.17857141)"
           width="100%"
           height="100%" />
        <use
           x="0"
           y="0"
           xlink:href="#path4357-7"
           id="use4376"
           transform="translate(-0.35714286,149.64286)"
           width="100%"
           height="100%" />
        <use
           x="0"
           y="0"
           xlink:href="#path4357-7"
           id="use4378"
           transform="translate(150.17857,149.64286)"
           width="100%"
           height="100%" />
        <path
           style="fill:none;fill-rule:evenodd;stroke:#4a4a4a;stroke-width:20.65759468;stroke-linecap:butt;stroke-linejoin:miter;stroke-miterlimit:4;stroke-dasharray:none;stroke-opacity:1"
           d="m 256.9591,257.69234 c 42.68217,41.68613 42.68217,41.68613 42.68217,41.68613 l 0,0"
           id="path4380"
           inkscape:connector-curvature="0" />
        <use
           x="0"
           y="0"
           xlink:href="#path4380"
           id="use4382"
           transform="translate(80.357143,80.714286)"
           width="100%"
           height="100%" />
        <use
           x="0"
           y="0"
           xlink:href="#path4380"
           id="use4384"
           transform="matrix(0.02277922,-0.99974052,0.99974052,0.02277922,76.45047,549.81463)"
           width="100%"
           height="100%" />
        <use
           x="0"
           y="0"
           xlink:href="#path4380"
           id="use4386"
           transform="matrix(-0.01642284,0.99986514,-0.99986514,-0.01642284,562.55847,84.809957)"
           width="100%"
           height="100%" />
      </g>
      <g
         id="g4478">
        <path
           style="fill:#ec0b06;fill-opacity:1;fill-rule:evenodd;stroke:none;stroke-width:1px;stroke-linecap:butt;stroke-linejoin:miter;stroke-opacity:1"
           d="m 100.76272,180.7594 68.43783,40.15356 c 0,0 8.057,-11.56831 12.62691,-16.92005 4.46482,-5.22867 14.39467,-14.77348 14.39467,-14.77348 l -50.25509,-61.2405 c 0,0 -12.21681,10.50216 -17.80394,16.28871 -4.68682,4.8541 -9.04634,10.03489 -13.13198,15.40482 -5.13885,6.75422 -14.2684,21.08694 -14.2684,21.08694 z"
           id="red"
           inkscape:connector-curvature="0"
           sodipodi:nodetypes="ccsccssc" />
        <use
           x="0"
           y="0"
           xlink:href="#red"
           id="use4265"
           transform="matrix(0.77555443,0.6312807,-0.6312807,0.77555443,276.61053,-130.77096)"
           width="100%"
           height="100%" />
        <use
           x="0"
           y="0"
           xlink:href="#red"
           id="use4267"
           transform="matrix(0.77210118,-0.63549962,0.63549962,0.77210118,-130.68343,278.44845)"
           width="100%"
           height="100%" />
        <use
           x="0"
           y="0"
           xlink:href="#red"
           id="use4269"
           transform="matrix(0.17888166,0.9838706,-0.9838706,0.17888166,578.7354,-49.912767)"
           width="100%"
           height="100%" />
        <use
           x="0"
           y="0"
           xlink:href="#red"
           id="use4303"
           transform="matrix(-0.47368331,0.88069525,-0.88069525,-0.47368331,756.32248,193.98172)"
           width="100%"
           height="100%" />
        <use
           x="0"
           y="0"
           xlink:href="#red"
           id="use4305"
           transform="matrix(0.13539219,-0.99079208,0.99079208,0.13539219,-45.429047,585.81824)"
           width="100%"
           height="100%" />
        <use
           x="0"
           y="0"
           xlink:href="#red"
           id="use4307"
           transform="matrix(-0.50521813,-0.86299168,0.86299168,-0.50521813,204.28792,757.4123)"
           width="100%"
           height="100%" />
        <use
           x="0"
           y="0"
           xlink:href="#red"
           id="use4309"
           transform="matrix(-0.92172792,0.38783714,-0.38783714,-0.92172792,736.37154,500.3854)"
           width="100%"
           height="100%" />
        <use
           x="0"
           y="0"
           xlink:href="#red"
           id="use4311"
           transform="matrix(-0.9396355,-0.34217704,0.34217704,-0.9396355,510.16234,729.59365)"
           width="100%"
           height="100%" />
        <path
           style="fill:#5f5f5f;fill-opacity:1;fill-rule:evenodd;stroke:none;stroke-width:1px;stroke-linecap:butt;stroke-linejoin:miter;stroke-opacity:1"
           d="m 66.710624,264.8346 78.231116,13.26415 c 0,0 3.4292,-13.67412 5.8034,-20.29896 2.3196,-6.47248 8.21767,-18.91909 8.21767,-18.91909 L 90.251413,199.45081 c 0,0 -7.696686,14.15298 -10.867699,21.5452 -2.660038,6.20103 -4.898171,12.59139 -6.813141,19.06144 -2.408612,8.13793 -5.859949,24.77715 -5.859949,24.77715 z"
           id="black"
           inkscape:connector-curvature="0"
           sodipodi:nodetypes="ccsccssc" />
        <use
           x="0"
           y="0"
           xlink:href="#black"
           id="use4328"
           transform="matrix(0.75434974,-0.65647275,0.65647275,0.75434974,-132.5663,283.24205)"
           width="100%"
           height="100%" />
        <use
           x="0"
           y="0"
           xlink:href="#black"
           id="use4330"
           transform="matrix(0.77067181,0.63723227,-0.63723227,0.77067181,278.03673,-132.80788)"
           width="100%"
           height="100%" />
        <use
           x="0"
           y="0"
           xlink:href="#black"
           id="use4332"
           transform="matrix(0.1647625,0.98633327,-0.98633327,0.1647625,580.2748,-49.746782)"
           width="100%"
           height="100%" />
        <use
           x="0"
           y="0"
           xlink:href="#black"
           id="use4334"
           transform="matrix(-0.49174695,0.87073816,-0.87073816,-0.49174695,756.55657,198.84639)"
           width="100%"
           height="100%" />
        <use
           x="0"
           y="0"
           xlink:href="#black"
           id="use4336"
           transform="matrix(-0.9517395,-0.30690703,0.30690703,-0.9517395,521.20774,727.4358)"
           width="100%"
           height="100%" />
        <use
           x="0"
           y="0"
           xlink:href="#black"
           id="use4338"
           transform="matrix(-0.51904985,-0.85474397,0.85474397,-0.51904985,206.71945,760.18275)"
           width="100%"
           height="100%" />
        <use
           x="0"
           y="0"
           xlink:href="#black"
           id="use4340"
           transform="matrix(0.1638908,-0.98647849,0.98647849,0.1638908,-50.387755,583.2271)"
           width="100%"
           height="100%" />
        <path
           style="fill:#14b800;fill-opacity:1;fill-rule:evenodd;stroke:none;stroke-width:1px;stroke-linecap:butt;stroke-linejoin:miter;stroke-opacity:1"
           d="m 577.03954,284.1972 -78.10477,13.98889 c 0,0 1.39991,14.02787 1.40736,21.06529 0.007,6.87557 -1.33139,20.58372 -1.33139,20.58372 l 78.00014,13.8546 c 0,0 2.45382,-15.92246 2.93652,-23.9516 0.40493,-6.73533 0.34878,-13.50606 -0.0384,-20.24244 -0.48705,-8.4729 -2.86942,-25.29846 -2.86942,-25.29846 z"
           id="green"
           inkscape:connector-curvature="0"
           sodipodi:nodetypes="ccsccssc" />
      </g>
      <ellipse
         ry="310.36249"
         rx="311.12012"
         cy="318.77148"
         cx="319.46075"
         id="path4259"
         style="fill:none;fill-opacity:0.72941176;stroke:#000000;stroke-width:14;stroke-miterlimit:4;stroke-dasharray:none;stroke-opacity:1" />
    </g>
  </g>
</svg>
